# xmcd
#
# Track frame offsets:
#	150
#	13635
#	29497
#	39707
#	61935
#	98797
#	109247
#	130560
#	149160
#	167385
#	201277
#	219477
#	256935
#
# Disc length: 3660 seconds
#
# Revision: 3
# Processed by: cddbd v1.5.1PL0 Copyright (c) Steve Scherf et al.
# Submitted via: audiograbber 1.83.01
#
DISCID=b80e4a0d
DTITLE=Blues 'n' Trouble - Live - Bag Full Of Boogie
DYEAR=1994
DGENRE=Blues
TTITLE0=Bag Full Of Boogie
TTITLE1=Riding In My Cadillac
TTITLE2=Deep Blue Feeling
TTITLE3=You Got Me Spinnin´
TTITLE4=Blue Because Of You
TTITLE5=Breaking The Ice
TTITLE6=Good Morning Little Schoolgirl
TTITLE7=Serenade For A Wealthy Widow
TTITLE8=Slim´s Chance
TTITLE9=Drugstore Woman
TTITLE10=Lookin´ For My Baby
TTITLE11=Lowdown
TTITLE12=Down In Dallas
EXTD=
EXTT0=
EXTT1=
EXTT2=
EXTT3=
EXTT4=
EXTT5=
EXTT6=
EXTT7=
EXTT8=
EXTT9=
EXTT10=
EXTT11=
EXTT12=
PLAYORDER=
